<svg width="24" height="24" viewBox="0 0 24 24" fill="none" xmlns="http://www.w3.org/2000/svg">
<path d="M17.025 21L16.725 19.5C16.525 19.4167 16.3377 19.3293 16.163 19.238C15.9883 19.1467 15.809 19.034 15.625 18.9L14.175 19.35L13.175 17.65L14.325 16.65C14.2917 16.45 14.275 16.2333 14.275 16C14.275 15.7667 14.2917 15.55 14.325 15.35L13.175 14.35L14.175 12.65L15.625 13.1C15.8083 12.9667 15.9877 12.8543 16.163 12.763C16.3383 12.6717 16.5257 12.584 16.725 12.5L17.025 11H19.025L19.325 12.5C19.525 12.5833 19.7127 12.671 19.888 12.763C20.0633 12.855 20.2423 12.9673 20.425 13.1L21.875 12.65L22.875 14.35L21.725 15.35C21.7583 15.55 21.775 15.7667 21.775 16C21.775 16.2333 21.7583 16.45 21.725 16.65L22.875 17.65L21.875 19.35L20.425 18.9C20.2417 19.0333 20.0627 19.146 19.888 19.238C19.7133 19.33 19.5257 19.4173 19.325 19.5L19.025 21H17.025ZM3 20V2H21V9.65C20.6833 9.5 20.3583 9.379 20.025 9.287C19.6917 9.195 19.35 9.12467 19 9.076V4H5V13H9.2C9.35 13.45 9.6 13.8417 9.95 14.175C10.3 14.5083 10.6917 14.7417 11.125 14.875C10.975 15.775 10.996 16.6667 11.188 17.55C11.38 18.4333 11.7423 19.25 12.275 20H3ZM18.025 18C18.575 18 19.046 17.8043 19.438 17.413C19.83 17.0217 20.0257 16.5507 20.025 16C20.025 15.45 19.8293 14.9793 19.438 14.588C19.0467 14.1967 18.5757 14.0007 18.025 14C17.475 14 17.0043 14.196 16.613 14.588C16.2217 14.98 16.0257 15.4507 16.025 16C16.025 16.55 16.221 17.021 16.613 17.413C17.005 17.805 17.4757 18.0007 18.025 18Z" fill="#FEFEFE" fill-opacity="0.88"/>
</svg>
