<svg width="24" height="24" viewBox="0 0 24 24" fill="none" xmlns="http://www.w3.org/2000/svg">
<path d="M1 20V17.2C1 16.6333 1.146 16.1127 1.438 15.638C1.73 15.1633 2.11733 14.8007 2.6 14.55C3.63333 14.0333 4.68333 13.646 5.75 13.388C6.81667 13.13 7.9 13.0007 9 13C10.1 13 11.1833 13.1293 12.25 13.388C13.3167 13.6467 14.3667 14.034 15.4 14.55C15.8833 14.8 16.271 15.1627 16.563 15.638C16.855 16.1133 17.0007 16.634 17 17.2V20H1ZM19 20V17C19 16.2667 18.796 15.5623 18.388 14.887C17.98 14.2117 17.4007 13.6327 16.65 13.15C17.5 13.25 18.3 13.421 19.05 13.663C19.8 13.905 20.5 14.2007 21.15 14.55C21.75 14.8833 22.2083 15.254 22.525 15.662C22.8417 16.07 23 16.516 23 17V20H19ZM9 12C7.9 12 6.95833 11.6083 6.175 10.825C5.39167 10.0417 5 9.1 5 8C5 6.9 5.39167 5.95833 6.175 5.175C6.95833 4.39167 7.9 4 9 4C10.1 4 11.0417 4.39167 11.825 5.175C12.6083 5.95833 13 6.9 13 8C13 9.1 12.6083 10.0417 11.825 10.825C11.0417 11.6083 10.1 12 9 12ZM19 8C19 9.1 18.6083 10.0417 17.825 10.825C17.0417 11.6083 16.1 12 15 12C14.8167 12 14.5833 11.9793 14.3 11.938C14.0167 11.8967 13.7833 11.8507 13.6 11.8C14.05 11.2667 14.396 10.675 14.638 10.025C14.88 9.375 15.0007 8.7 15 8C15 7.3 14.8793 6.625 14.638 5.975C14.3967 5.325 14.0507 4.73333 13.6 4.2C13.8333 4.11667 14.0667 4.06267 14.3 4.038C14.5333 4.01333 14.7667 4.00067 15 4C16.1 4 17.0417 4.39167 17.825 5.175C18.6083 5.95833 19 6.9 19 8ZM3 18H15V17.2C15 17.0167 14.9543 16.85 14.863 16.7C14.7717 16.55 14.6507 16.4333 14.5 16.35C13.6 15.9 12.6917 15.5627 11.775 15.338C10.8583 15.1133 9.93333 15.0007 9 15C8.06667 15 7.14167 15.1127 6.225 15.338C5.30833 15.5633 4.4 15.9007 3.5 16.35C3.35 16.4333 3.229 16.55 3.137 16.7C3.045 16.85 2.99933 17.0167 3 17.2V18ZM9 10C9.55 10 10.021 9.80433 10.413 9.413C10.805 9.02167 11.0007 8.55067 11 8C11 7.45 10.8043 6.97933 10.413 6.588C10.0217 6.19667 9.55067 6.00067 9 6C8.45 6 7.97933 6.196 7.588 6.588C7.19667 6.98 7.00067 7.45067 7 8C7 8.55 7.196 9.021 7.588 9.413C7.98 9.805 8.45067 10.0007 9 10Z" fill="#FEFEFE" fill-opacity="0.88"/>
</svg>
