<svg width="24" height="24" viewBox="0 0 24 24" fill="none" xmlns="http://www.w3.org/2000/svg">
<path d="M13 11H19.95C19.7 9.16667 18.9377 7.61233 17.663 6.337C16.3883 5.06167 14.834 4.29933 13 4.05V11ZM11 19.95V4.05C8.98333 4.3 7.31267 5.17933 5.988 6.688C4.66333 8.19667 4.00067 9.96733 4 12C4 14.0333 4.66267 15.8043 5.988 17.313C7.31333 18.8217 8.984 19.7007 11 19.95ZM13 19.95C14.8333 19.7167 16.3917 18.9583 17.675 17.675C18.9583 16.3917 19.7167 14.8333 19.95 13H13V19.95ZM12 22C10.6167 22 9.31667 21.7377 8.1 21.213C6.88333 20.6883 5.825 19.9757 4.925 19.075C4.025 18.175 3.31267 17.1167 2.788 15.9C2.26333 14.6833 2.00067 13.3833 2 12C2 10.6167 2.26267 9.31667 2.788 8.1C3.31333 6.88333 4.02567 5.825 4.925 4.925C5.825 4.025 6.88333 3.31267 8.1 2.788C9.31667 2.26333 10.6167 2.00067 12 2C13.3833 2 14.6793 2.26267 15.888 2.788C17.0967 3.31333 18.1547 4.03 19.062 4.938C19.9707 5.846 20.6873 6.90433 21.212 8.113C21.7367 9.32167 21.9993 10.6173 22 12C22 13.3667 21.7373 14.6583 21.212 15.875C20.6867 17.0917 19.9743 18.1543 19.075 19.063C18.175 19.971 17.1167 20.6877 15.9 21.213C14.6833 21.7383 13.3833 22.0007 12 22Z" fill="#FEFEFE" fill-opacity="0.88"/>
</svg>
