<svg width="24" height="24" viewBox="0 0 24 24" fill="none" xmlns="http://www.w3.org/2000/svg">
<path d="M17 22C15.6167 22 14.4377 21.5123 13.463 20.537C12.4883 19.5617 12.0007 18.3827 12 17C12 15.6167 12.4877 14.4377 13.463 13.463C14.4383 12.4883 15.6173 12.0007 17 12C18.3833 12 19.5627 12.4877 20.538 13.463C21.5133 14.4383 22.0007 15.6173 22 17C22 18.3833 21.5123 19.5627 20.537 20.538C19.5617 21.5133 18.3827 22.0007 17 22ZM18.675 19.375L19.375 18.675L17.5 16.8V14H16.5V17.2L18.675 19.375ZM3 21V3H9.175C9.35833 2.41667 9.71667 1.93767 10.25 1.563C10.7833 1.18833 11.3667 1.00067 12 1C12.6667 1 13.2627 1.18767 13.788 1.563C14.3133 1.93833 14.6673 2.41733 14.85 3H21V11.25C20.7 11.0333 20.3833 10.85 20.05 10.7C19.7167 10.55 19.3667 10.4167 19 10.3V5H17V8H7V5H5V19H10.3C10.4167 19.3667 10.55 19.7167 10.7 20.05C10.85 20.3833 11.0333 20.7 11.25 21H3ZM12 5C12.2833 5 12.521 4.904 12.713 4.712C12.905 4.52 13.0007 4.28267 13 4C13 3.71667 12.904 3.47933 12.712 3.288C12.52 3.09667 12.2827 3.00067 12 3C11.7167 3 11.4793 3.096 11.288 3.288C11.0967 3.48 11.0007 3.71733 11 4C11 4.28333 11.096 4.521 11.288 4.713C11.48 4.905 11.7173 5.00067 12 5Z" fill="#FEFEFE" fill-opacity="0.88"/>
</svg>
