<svg width="24" height="24" viewBox="0 0 24 24" fill="none" xmlns="http://www.w3.org/2000/svg">
<path d="M10.3 19.8C11.05 18.2833 12.05 17.271 13.3 16.763C14.55 16.255 15.6167 16.0007 16.5 16C16.8833 16 17.2583 16.0333 17.625 16.1C17.9917 16.1667 18.35 16.25 18.7 16.35C19.1 15.7167 19.4167 15.0333 19.65 14.3C19.8833 13.5667 20 12.8 20 12C20 9.76667 19.225 7.875 17.675 6.325C16.125 4.775 14.2333 4 12 4C9.76667 4 7.875 4.775 6.325 6.325C4.775 7.875 4 9.76667 4 12C4 12.75 4.09567 13.4667 4.287 14.15C4.47833 14.8333 4.766 15.4667 5.15 16.05C5.83333 15.7167 6.54167 15.4583 7.275 15.275C8.00833 15.0917 8.75 15 9.5 15C10.0333 15 10.5457 15.046 11.037 15.138C11.5283 15.23 12.016 15.3507 12.5 15.5C12.1167 15.7 11.754 15.9333 11.412 16.2C11.07 16.4667 10.7493 16.75 10.45 17.05C10.25 17.0167 10.0793 17 9.938 17H9.5C8.96667 17 8.43733 17.0583 7.912 17.175C7.38667 17.2917 6.88267 17.4667 6.4 17.7C6.93333 18.2333 7.52933 18.6793 8.188 19.038C8.84667 19.3967 9.55067 19.6507 10.3 19.8ZM12 22C10.6167 22 9.31667 21.7373 8.1 21.212C6.88333 20.6867 5.825 19.9743 4.925 19.075C4.025 18.175 3.31267 17.1167 2.788 15.9C2.26333 14.6833 2.00067 13.3833 2 12C2 10.6167 2.26267 9.31667 2.788 8.1C3.31333 6.88333 4.02567 5.825 4.925 4.925C5.825 4.025 6.88333 3.31267 8.1 2.788C9.31667 2.26333 10.6167 2.00067 12 2C13.3833 2 14.6833 2.26267 15.9 2.788C17.1167 3.31333 18.175 4.02567 19.075 4.925C19.975 5.825 20.6877 6.88333 21.213 8.1C21.7383 9.31667 22.0007 10.6167 22 12C22 13.3833 21.7373 14.6833 21.212 15.9C20.6867 17.1167 19.9743 18.175 19.075 19.075C18.175 19.975 17.1167 20.6877 15.9 21.213C14.6833 21.7383 13.3833 22.0007 12 22ZM9.5 13.5C8.53333 13.5 7.70833 13.1583 7.025 12.475C6.34167 11.7917 6 10.9667 6 10C6 9.03333 6.34167 8.20833 7.025 7.525C7.70833 6.84167 8.53333 6.5 9.5 6.5C10.4667 6.5 11.2917 6.84167 11.975 7.525C12.6583 8.20833 13 9.03333 13 10C13 10.9667 12.6583 11.7917 11.975 12.475C11.2917 13.1583 10.4667 13.5 9.5 13.5ZM9.5 11.5C9.91667 11.5 10.271 11.3543 10.563 11.063C10.855 10.7717 11.0007 10.4173 11 10C11 9.58333 10.8543 9.22933 10.563 8.938C10.2717 8.64667 9.91733 8.50067 9.5 8.5C9.08333 8.5 8.72933 8.646 8.438 8.938C8.14667 9.23 8.00067 9.584 8 10C8 10.4167 8.146 10.771 8.438 11.063C8.73 11.355 9.084 11.5007 9.5 11.5ZM16.5 14.5C15.8 14.5 15.2083 14.2583 14.725 13.775C14.2417 13.2917 14 12.7 14 12C14 11.3 14.2417 10.7083 14.725 10.225C15.2083 9.74167 15.8 9.5 16.5 9.5C17.2 9.5 17.7917 9.74167 18.275 10.225C18.7583 10.7083 19 11.3 19 12C19 12.7 18.7583 13.2917 18.275 13.775C17.7917 14.2583 17.2 14.5 16.5 14.5Z" fill="#FEFEFE" fill-opacity="0.88"/>
</svg>
